<svg xmlns="http://www.w3.org/2000/svg" version="1.1" xmlns:xlink="http://www.w3.org/1999/xlink" xmlns:svgjs="http://svgjs.com/svgjs" width="800px" height="800px"><svg fill="#000000" width="800px" height="800px" viewBox="-4 0 32 32" version="1.1" xmlns="http://www.w3.org/2000/svg">
<title>subway</title>
<path d="M18.76 20.88v-6.56c0-2.6-2.12-4.72-4.72-4.72h-4.44c-2.6 0-4.72 2.12-4.72 4.72v6.56c0 1.68 1.080 3.080 2.56 3.64l-1.040 1.040c-0.32 0.32-0.32 0.84 0 1.16 0.16 0.16 0.36 0.24 0.6 0.24 0.2 0 0.44-0.080 0.6-0.24l2-2h4.56l2 2c0.16 0.16 0.36 0.24 0.6 0.24s0.44-0.080 0.6-0.24c0.32-0.32 0.32-0.84 0-1.16l-1.040-1.040c1.4-0.56 2.44-1.96 2.44-3.64zM9.6 11.28h4.44c1.68 0 3.080 1.36 3.080 3.080v2.72h-3.36c-0.48-0.56-1.16-0.88-1.92-0.88s-1.48 0.36-1.92 0.88h-3.36v-2.72c0-1.72 1.36-3.080 3.040-3.080zM12.68 18.68c0 0.48-0.4 0.84-0.84 0.84-0.48 0-0.84-0.4-0.84-0.84s0.4-0.84 0.84-0.84c0.44 0 0.84 0.36 0.84 0.84zM14.92 23.080h-6.2c-1.2 0-2.2-0.96-2.2-2.2v-2.16h2.76c0.040 1.36 1.16 2.48 2.52 2.48s2.52-1.12 2.52-2.48h2.76v2.16c0.040 1.2-0.96 2.2-2.16 2.2zM20.2 8.48c-2.24-2.24-5.2-3.48-8.36-3.48s-6.12 1.24-8.36 3.48c-4.64 4.6-4.64 12.12-0.040 16.72 0.16 0.16 0.36 0.24 0.6 0.24s0.44-0.080 0.6-0.24c0.32-0.32 0.32-0.84 0-1.16-3.96-3.96-3.96-10.4 0-14.36 1.92-1.92 4.48-2.96 7.2-2.96s5.28 1.040 7.2 2.96 2.96 4.48 2.96 7.2-1.040 5.28-2.96 7.2c-0.32 0.32-0.32 0.84 0 1.16s0.84 0.32 1.16 0c2.24-2.24 3.48-5.2 3.48-8.36-0.040-3.2-1.24-6.16-3.48-8.4z"></path>
</svg><style>@media (prefers-color-scheme: light) { :root { filter: none; } }
@media (prefers-color-scheme: dark) { :root { filter: invert(100%); } }
</style></svg>